Patient4_TMGait_0pt4_02_right_11_EMG.mot
version=1
nRows=29
nColumns=33
inDegrees=no
endheader
time	1LAddLong	2LGlutMax	3LGlutMed	4LIliopsoas	5LSemiMemb	6LBicFemLong	7LRecFem	8LVastMed	9LVastLat	10LGasMed	11LTibAnt	12lTibPost	13LPeroneusLong	14LSol	15LExtDigLong	16LFlexDigLong	17RAddLong	18RGlutMax	19RGlutMed	20RIliopsoas	21RSemiMemb	22RBicFemLong	23RRecFem	24RVastMed	25RVastLat	26RGasMed	27RTibAnt	28RTibPost	29RPeroneusLong	30RSol	31RExtDigLong	32RFlexDigLong
15.438	0.010834	-0.088959	-0.079956	0.01236	0.02121	0.014343	0.048218	0.001373	-0.047607	-0.15686	0.006561	0.024719	0.14008	0.011139	0.038452	0.006866	0.043335	-0.092316	0.13809	0.056305	0.13199	0.006104	-0.008698	-0.1387	0.016022	0.001831	-0.073547	-0.008545	0.15366	-0.017853	-0.003204	-0.018616
15.439	0.000916	-0.08667	-0.042114	0.003815	0.026855	-0.005035	0.035706	0.00351	-0.023346	-0.13947	0.03067	-0.085754	0.090485	0.008087	0.001526	0.014496	0.01709	-0.12558	0.011597	-0.065308	0.087433	0.025635	-0.018311	-0.10468	0.018616	0.007782	-0.000763	-0.007019	0.054626	-0.043488	-0.005493	-0.014954
15.44	0.006714	-0.10529	0.023193	-0.015259	0.016022	0.019836	0.046387	0.001831	0.001678	-0.073395	0.001831	0.024414	0.047607	0.04303	0.003967	0.007629	0.002747	-0.11597	-0.16876	0.008698	-0.007019	0.10223	-0.018921	-0.04303	0.018158	-0.000458	0.007935	-0.007172	-0.25146	-0.050354	-0.00061	-0.01236
15.441	0.005646	-0.056458	0.037537	-0.003357	0.016479	0.021973	0.012512	0.001678	0.011292	0.044556	0.02243	0.029144	-0.037384	0.1059	0.015717	-0.005341	-0.045166	-0.073547	-0.094452	0.15259	-0.086365	0.20966	-0.027771	-0.022278	0.023499	0.000916	-0.002289	-0.005798	-0.16708	-0.009918	-0.001221	-0.014038
15.442	0.008392	-0.052338	0.053101	0.002899	0.013428	-0.005798	-0.014343	0.003204	0.018616	0.01709	0.010223	0.014954	0.01358	-0.12878	-0.024719	0.000916	-0.066223	-0.08606	-0.062866	0.11826	-0.18372	0.26352	-0.044556	0.006561	0.010681	-0.005493	-0.021667	-0.008087	0.14313	0.046997	0.009155	-0.012665
15.443	0.002899	-0.059967	0.038757	0.001221	0.009308	-0.037231	-0.003357	0.008698	0.000458	0.038452	-0.00885	0.029144	0.15839	-0.31677	0.014191	0.024261	-0.045624	-0.087128	-0.063477	0.042419	0.003967	0.24872	-0.022736	-0.02243	0.008392	-0.003204	0.001526	-0.011292	0.13519	0.037994	-0.001526	-0.011902
15.444	0.006256	-0.063019	0.01358	-0.001831	-0.000153	-0.031891	0.00351	0.00412	0.009155	0.03067	0.00351	-0.022583	0.27313	-0.3569	0.011139	0.016785	-0.037537	-0.12848	-0.075531	0.003967	0.05127	0.19241	-0.038605	-0.00412	0.021515	-0.000153	0.025635	-0.008545	0.17425	-0.001831	0.004578	-0.017395
15.445	0.009003	-0.04364	0.017853	-0.000305	0.011597	0.009003	0.037384	0.004883	0.014954	0.094604	0.029907	-0.039215	0.39352	-0.30502	-0.010376	-0.007477	-0.030975	-0.098419	0.005951	-0.030365	-0.009613	0.1535	-0.033417	-0.027618	0.010529	-0.001373	0.055389	-0.001068	0.30716	-0.014343	-0.001068	-0.017548
15.446	0.01236	-0.072937	0.030823	0.003052	0.027008	-0.006409	0.018463	0.000458	0.042725	0.091248	-0.006256	-0.056152	0.081482	0.25253	0.044098	0.016479	-0.01236	-0.054932	0.12329	-0.068512	-0.027771	0.13702	-0.029297	-0.046082	0.015564	0.005493	0.078583	-0.007935	0.097351	-0.020447	-0.003052	-0.00824
15.447	0.008392	-0.082092	0.043182	-0.00061	0.022583	-0.031586	-0.027771	0.002747	0.097046	0.079498	-0.022888	-0.019531	-0.054474	0.38284	-0.006256	0.020599	-0.001221	-0.091095	0.042419	-0.034027	0.055389	0.13733	0.007172	-0.059357	0.017853	0.00061	0.010071	-0.00885	-0.29297	0.000153	-0.001984	-0.008545
15.448	0.010529	-0.076294	-0.051575	0.024719	0.014801	-0.053253	-0.029144	0.001984	0.11475	0.066223	-0.020905	0.007324	-0.052338	0.15381	-0.033722	0.032501	-0.006866	-0.10864	-0.02121	-0.058746	0.092316	0.10574	-0.059509	-0.07843	0.012054	-0.001831	0.028687	-0.012665	-0.22537	-0.028687	0.003204	-0.015564
15.449	0.00351	-0.089417	-0.034943	0.020447	0.020447	-0.048523	-0.02182	0.000305	0.10956	0.02594	-0.027924	0.009613	0.061035	0.099792	-0.001831	0.020599	0.008087	-0.1062	-0.16586	-0.049133	0.0737	0.026398	-0.014648	-0.074463	0.023346	-0.003052	0.064545	-0.006866	-0.063324	-0.027161	0.003204	-0.002289
15.45	0.003967	-0.075378	0.067291	-0.001373	0.016479	-0.07782	-0.025177	-0.002747	0.092316	-0.002136	-0.02121	-0.037842	-0.092773	0.055695	0.036316	0.009613	0.010681	-0.097351	-0.25803	-0.053558	-0.022736	0.011902	-0.021667	-0.011139	0.010834	-0.001221	0.061798	-0.010529	0.014191	0.012512	0.000763	-0.002441
15.451	0.013428	-0.086365	0.072021	-0.001373	0.015411	-0.051727	-0.026093	-0.00351	0.082703	-0.036774	-0.023956	-0.033417	-0.17258	0.074768	0.032043	0.011444	0.015259	-0.11917	-0.10941	-0.11704	-0.058441	0.0737	-0.019684	-0.050964	0.016785	0.002747	-0.051422	-0.005493	0.013428	0.006714	-0.004578	0.001678
15.452	0.008545	-0.10117	0.032654	0.007782	0.014801	-0.06546	-0.006409	0.003357	0.067902	-0.049744	0.004425	-0.014801	-0.1889	-0.00473	0.011292	0.009613	0.014191	-0.1091	-0.045166	-0.1178	-0.024109	0.13367	-0.039673	-0.063934	0.02121	0.003815	-0.094147	-0.007782	-0.092621	-0.019989	0.00061	0
15.453	0.006561	-0.073395	0.071259	0.014648	0.016479	-0.045624	-0.019836	0.000153	0.063019	-0.068054	0.039673	-0.014954	0.073242	0.034485	-0.041199	0.005951	-0.001984	-0.046082	-0.055389	-0.091705	0.019073	0.17212	-0.061188	-0.059052	0.02533	0.002441	-0.075378	-0.007782	-0.022736	-0.021973	0.001831	-0.011902
15.454	0.005798	-0.046234	0.09613	0.009155	0.01709	-0.032806	-0.030365	-0.001678	0.13428	-0.046539	0.032959	-0.009766	0.25024	0.061951	-0.098877	0.003204	-0.023804	-0.049896	-0.13153	-0.019531	0.10071	0.18906	-0.031281	-0.000763	0.031128	0.000916	-0.050507	-0.010681	0.094604	-0.00412	0.002594	-0.008087
15.455	0.016632	-0.025177	0.19836	0.01358	0.014801	-0.011749	-0.016174	-0.00061	0.15854	-0.036469	-0.014496	0.003204	0.44495	0.11322	-0.053711	0.008545	-0.007477	-0.045319	0.13046	0.035858	0.15335	0.21652	-0.075989	0.001984	0.02243	0.000763	-0.02655	-0.003357	0.068207	-0.022888	-0.005798	-0.000305
15.456	0.00946	-0.05722	0.11124	0.009308	0.009918	-0.002441	-0.032349	-0.002441	0.15839	0.041656	0.00351	-0.010223	0.75562	0.15381	-0.005798	0.009918	0.00351	-0.034637	0.045929	0.054016	0.052338	0.24826	-0.035248	-0.068207	0.039063	-0.000916	-0.007477	-0.008392	0.063629	-0.019836	0.003967	-0.012207
15.457	0.009155	-0.051575	0.11383	0.020447	0.013733	0.003357	-0.015259	0.010834	0.19501	0.16434	0.018158	-0.014954	0.19058	0.084229	-0.012512	0.008698	-0.006409	-0.041809	0.03891	0.11017	0.020905	0.23239	-0.020599	-0.024261	0.01709	0.000305	-0.002136	-0.012512	-0.009003	-0.01297	0.001831	-0.00473
15.458	0.01236	-0.046844	0.076599	0.009766	0.037842	0.007935	-0.003662	-0.007172	0.27771	0.177	0.022736	-0.02533	-0.55344	0.087585	0.10803	0.003052	0.000305	0.000916	0.065613	0.17303	-0.057678	0.21347	-0.050354	-0.035706	0.010223	-0.005035	0.013428	-0.007019	-0.14053	-0.006714	0.001526	-0.001068
15.459	-0.001068	0.02243	0.057526	0.013123	0.018158	0.005493	0.04776	-0.024261	0.10651	0.15778	-0.001984	-0.014648	-0.28412	0.053864	0.10895	0.010834	0.02655	-0.014343	0.14343	0.14175	-0.24384	0.20142	-0.027313	-0.093689	0.014801	0.000458	-0.013275	-0.007629	-0.13718	-0.03891	0.001221	-0.005035
15.46	0.010834	0.005035	0.075378	-0.006866	0.012665	0.040741	0.078888	-0.002289	-0.23331	0.03479	-0.00885	-0.014496	-0.015869	0.082855	0.025482	0.005188	0.057068	-0.019684	0.10849	0.016174	-0.27634	0.16785	-0.034332	-0.093384	0.01358	-0.001221	-0.007324	-0.009003	-0.18753	-0.017853	0.003052	0.007324
15.461	-0.004425	0.02243	0.078278	-0.001678	0.010681	0.027008	0.048828	0.00885	-0.1973	-0.20416	-0.013733	-0.017548	-0.28137	-0.036316	0.003204	0.006104	0.07309	0.043793	0.11429	-0.13657	-0.24414	0.14832	-0.015564	-0.13855	0.023193	0.005035	-0.005188	-0.008087	0.18738	-0.0383	-0.003662	0.002441
15.462	-0.009003	-0.021362	-0.005035	-0.007019	0.011902	0.016632	0.092773	0.008392	-0.14282	-0.074768	-0.014496	-0.005951	-0.1181	-0.049438	-0.010376	0.015106	0.063629	-0.052032	0.20065	-0.1915	0.16525	0.12817	-0.089569	-0.069885	0.027161	-0.003204	-0.001984	-0.004425	0.55481	-0.046234	0.001526	0.009155
15.463	-0.00351	-0.02243	-0.079346	0.014496	0.008392	0.020142	0.061188	0.002899	-0.042725	0.16022	-0.021973	-0.008087	-0.16495	0.029144	0.007019	0.010681	0.014343	-0.068207	0.028381	-0.052338	0.39383	0.18967	-0.10544	-0.077972	0.055389	0.000305	-0.006256	-0.002289	0.68863	-0.040131	-0.002441	0.013123
15.464	-0.005341	-0.047455	-0.049744	0.009613	0.012512	0.03418	0.032959	0.006561	-0.00351	0.59601	-0.028534	-0.008087	-0.041046	-0.013275	-0.065613	0.012054	-0.028992	-0.066681	-0.14755	0.15457	0.002441	0.30365	-0.09201	-0.073242	0.032349	0.001678	-0.04303	-0.005341	0.78262	-0.054321	-0.000458	0.020142
15.465	-0.003052	0.012207	-0.062103	0.012207	0.013123	0.031586	0.020752	0.006104	0.066528	0.24918	-0.031281	0.001526	0.00351	-0.12802	-0.024109	0.008392	-0.050354	-0.050659	-0.19257	0.17334	0.09964	0.43503	-0.099335	-0.061951	0.028381	0.002289	-0.060272	-0.003357	0.22339	0.010529	0.00412	0.015564
15.466	0.00061	-0.00351	-0.10132	0.00351	0.007782	0.060425	0.004578	0.008392	0.12009	-0.23102	-0.019836	-0.008545	-0.053406	-0.018005	0.076599	-0.010834	-0.042267	-0.01297	-0.094757	0.10956	0.17273	0.34866	-0.11551	0.010223	0.029755	-0.001221	-0.016632	-0.00824	0.36514	0.07431	0	0.016479
